<mxfile host="app.diagrams.net" modified="2023-10-05T00:44:40.260Z" agent="Mozilla/5.0 (Windows NT 10.0; Win64; x64) AppleWebKit/537.36 (KHTML, like Gecko) Chrome/116.0.0.0 Safari/537.36" etag="makGS-q9M-HM3ARw8Jt3" version="22.0.2" type="github">
  <diagram name="Page-1" id="ESBnfDB_e8HRcP2K4Qyw">
    <mxGraphModel dx="1320" dy="791" grid="1" gridSize="10" guides="1" tooltips="1" connect="1" arrows="1" fold="1" page="1" pageScale="1" pageWidth="850" pageHeight="1100" math="0" shadow="0">
      <root>
        <mxCell id="0" />
        <mxCell id="1" parent="0" />
        <mxCell id="3Rv9GDqVmI73k5GDpeun-15" style="edgeStyle=orthogonalEdgeStyle;rounded=0;orthogonalLoop=1;jettySize=auto;html=1;exitX=0.917;exitY=0.027;exitDx=0;exitDy=0;entryX=-0.067;entryY=0.027;entryDx=0;entryDy=0;entryPerimeter=0;exitPerimeter=0;" parent="1" source="3Rv9GDqVmI73k5GDpeun-1" target="3Rv9GDqVmI73k5GDpeun-12" edge="1">
          <mxGeometry relative="1" as="geometry" />
        </mxCell>
        <mxCell id="3Rv9GDqVmI73k5GDpeun-32" value="ATTACKS&lt;br&gt;ENEMY" style="edgeLabel;html=1;align=center;verticalAlign=middle;resizable=0;points=[];" parent="3Rv9GDqVmI73k5GDpeun-15" vertex="1" connectable="0">
          <mxGeometry x="-0.1641" y="4" relative="1" as="geometry">
            <mxPoint x="1" as="offset" />
          </mxGeometry>
        </mxCell>
        <mxCell id="3Rv9GDqVmI73k5GDpeun-16" style="edgeStyle=orthogonalEdgeStyle;rounded=0;orthogonalLoop=1;jettySize=auto;html=1;entryX=0.1;entryY=0.089;entryDx=0;entryDy=0;entryPerimeter=0;exitX=1.175;exitY=0.089;exitDx=0;exitDy=0;exitPerimeter=0;" parent="1" target="3Rv9GDqVmI73k5GDpeun-13" edge="1" source="3Rv9GDqVmI73k5GDpeun-12">
          <mxGeometry relative="1" as="geometry">
            <mxPoint x="442" y="426" as="sourcePoint" />
          </mxGeometry>
        </mxCell>
        <mxCell id="3Rv9GDqVmI73k5GDpeun-34" value="ATTACK FROM&lt;br&gt;PLAYER" style="edgeLabel;html=1;align=center;verticalAlign=middle;resizable=0;points=[];" parent="3Rv9GDqVmI73k5GDpeun-16" vertex="1" connectable="0">
          <mxGeometry x="-0.003" relative="1" as="geometry">
            <mxPoint x="1" as="offset" />
          </mxGeometry>
        </mxCell>
        <mxCell id="3Rv9GDqVmI73k5GDpeun-1" value="" style="rounded=0;whiteSpace=wrap;html=1;" parent="1" vertex="1">
          <mxGeometry x="185" y="353" width="20" height="587" as="geometry" />
        </mxCell>
        <mxCell id="3Rv9GDqVmI73k5GDpeun-2" value="&lt;font style=&quot;font-size: 24px;&quot;&gt;SEQUENCE DIAGRAM&lt;/font&gt;" style="rounded=0;whiteSpace=wrap;html=1;" parent="1" vertex="1">
          <mxGeometry x="170" y="150" width="520" height="60" as="geometry" />
        </mxCell>
        <mxCell id="3Rv9GDqVmI73k5GDpeun-4" value="&lt;font style=&quot;font-size: 18px;&quot;&gt;Player Character:&lt;br&gt;NINJA&lt;br&gt;&lt;/font&gt;" style="shape=umlActor;verticalLabelPosition=bottom;verticalAlign=top;html=1;outlineConnect=0;" parent="1" vertex="1">
          <mxGeometry x="180" y="240" width="30" height="53" as="geometry" />
        </mxCell>
        <mxCell id="3Rv9GDqVmI73k5GDpeun-6" value="&lt;font size=&quot;3&quot;&gt;ENEMY&lt;/font&gt;" style="rounded=1;whiteSpace=wrap;html=1;" parent="1" vertex="1">
          <mxGeometry x="370" y="290" width="120" height="43" as="geometry" />
        </mxCell>
        <mxCell id="3Rv9GDqVmI73k5GDpeun-7" value="&lt;font size=&quot;3&quot;&gt;GAME AI&lt;/font&gt;" style="rounded=1;whiteSpace=wrap;html=1;" parent="1" vertex="1">
          <mxGeometry x="610" y="290" width="120" height="43" as="geometry" />
        </mxCell>
        <mxCell id="3Rv9GDqVmI73k5GDpeun-12" value="" style="rounded=0;whiteSpace=wrap;html=1;" parent="1" vertex="1">
          <mxGeometry x="420" y="353" width="20" height="587" as="geometry" />
        </mxCell>
        <mxCell id="3Rv9GDqVmI73k5GDpeun-13" value="" style="rounded=0;whiteSpace=wrap;html=1;" parent="1" vertex="1">
          <mxGeometry x="660" y="353" width="20" height="587" as="geometry" />
        </mxCell>
        <mxCell id="3Rv9GDqVmI73k5GDpeun-18" value="" style="endArrow=block;dashed=1;endFill=0;endSize=12;html=1;rounded=0;" parent="1" source="3Rv9GDqVmI73k5GDpeun-20" edge="1">
          <mxGeometry width="160" relative="1" as="geometry">
            <mxPoint x="660" y="548" as="sourcePoint" />
            <mxPoint x="440" y="548" as="targetPoint" />
          </mxGeometry>
        </mxCell>
        <mxCell id="3Rv9GDqVmI73k5GDpeun-24" value="" style="endArrow=block;dashed=1;endFill=0;endSize=12;html=1;rounded=0;" parent="1" target="3Rv9GDqVmI73k5GDpeun-20" edge="1">
          <mxGeometry width="160" relative="1" as="geometry">
            <mxPoint x="660" y="548" as="sourcePoint" />
            <mxPoint x="440" y="548" as="targetPoint" />
          </mxGeometry>
        </mxCell>
        <mxCell id="3Rv9GDqVmI73k5GDpeun-20" value="PROCESS&lt;br&gt;DAMAGE" style="text;html=1;align=center;verticalAlign=middle;resizable=0;points=[];autosize=1;strokeColor=none;fillColor=none;" parent="1" vertex="1">
          <mxGeometry x="510" y="528" width="80" height="40" as="geometry" />
        </mxCell>
        <mxCell id="3Rv9GDqVmI73k5GDpeun-31" style="edgeStyle=orthogonalEdgeStyle;rounded=0;orthogonalLoop=1;jettySize=auto;html=1;exitX=0.917;exitY=0.027;exitDx=0;exitDy=0;entryX=-0.067;entryY=0.027;entryDx=0;entryDy=0;entryPerimeter=0;exitPerimeter=0;" parent="1" edge="1">
          <mxGeometry relative="1" as="geometry">
            <mxPoint x="420" y="623" as="sourcePoint" />
            <mxPoint x="204" y="623" as="targetPoint" />
          </mxGeometry>
        </mxCell>
        <mxCell id="3Rv9GDqVmI73k5GDpeun-35" value="ATTACKS&lt;br&gt;PLAYER" style="edgeLabel;html=1;align=center;verticalAlign=middle;resizable=0;points=[];" parent="3Rv9GDqVmI73k5GDpeun-31" vertex="1" connectable="0">
          <mxGeometry x="0.037" y="-1" relative="1" as="geometry">
            <mxPoint as="offset" />
          </mxGeometry>
        </mxCell>
        <mxCell id="3Rv9GDqVmI73k5GDpeun-37" style="edgeStyle=orthogonalEdgeStyle;rounded=0;orthogonalLoop=1;jettySize=auto;html=1;exitX=0.917;exitY=0.027;exitDx=0;exitDy=0;exitPerimeter=0;entryX=-0.172;entryY=0.647;entryDx=0;entryDy=0;entryPerimeter=0;" parent="1" target="3Rv9GDqVmI73k5GDpeun-13" edge="1">
          <mxGeometry relative="1" as="geometry">
            <mxPoint x="204" y="733" as="sourcePoint" />
            <mxPoint x="652" y="733" as="targetPoint" />
          </mxGeometry>
        </mxCell>
        <mxCell id="3Rv9GDqVmI73k5GDpeun-38" value="ATTACK FROM&lt;br&gt;ENEMY" style="edgeLabel;html=1;align=center;verticalAlign=middle;resizable=0;points=[];" parent="3Rv9GDqVmI73k5GDpeun-37" vertex="1" connectable="0">
          <mxGeometry x="-0.1641" y="4" relative="1" as="geometry">
            <mxPoint x="155" as="offset" />
          </mxGeometry>
        </mxCell>
        <mxCell id="3Rv9GDqVmI73k5GDpeun-39" value="" style="endArrow=block;dashed=1;endFill=0;endSize=12;html=1;rounded=0;entryX=1.041;entryY=0.885;entryDx=0;entryDy=0;entryPerimeter=0;" parent="1" source="3Rv9GDqVmI73k5GDpeun-41" target="3Rv9GDqVmI73k5GDpeun-1" edge="1">
          <mxGeometry width="160" relative="1" as="geometry">
            <mxPoint x="582" y="893" as="sourcePoint" />
            <mxPoint x="362" y="893" as="targetPoint" />
          </mxGeometry>
        </mxCell>
        <mxCell id="3Rv9GDqVmI73k5GDpeun-40" value="" style="endArrow=block;dashed=1;endFill=0;endSize=12;html=1;rounded=0;exitX=0.124;exitY=0.881;exitDx=0;exitDy=0;exitPerimeter=0;" parent="1" source="3Rv9GDqVmI73k5GDpeun-13" target="3Rv9GDqVmI73k5GDpeun-41" edge="1">
          <mxGeometry width="160" relative="1" as="geometry">
            <mxPoint x="582" y="893" as="sourcePoint" />
            <mxPoint x="362" y="893" as="targetPoint" />
          </mxGeometry>
        </mxCell>
        <mxCell id="3Rv9GDqVmI73k5GDpeun-41" value="PROCESS&lt;br&gt;DAMAGE" style="text;html=1;align=center;verticalAlign=middle;resizable=0;points=[];autosize=1;strokeColor=none;fillColor=none;" parent="1" vertex="1">
          <mxGeometry x="290" y="850" width="80" height="40" as="geometry" />
        </mxCell>
        <mxCell id="3Rv9GDqVmI73k5GDpeun-42" style="edgeStyle=orthogonalEdgeStyle;rounded=0;orthogonalLoop=1;jettySize=auto;html=1;exitX=0.5;exitY=1;exitDx=0;exitDy=0;" parent="1" source="3Rv9GDqVmI73k5GDpeun-12" target="3Rv9GDqVmI73k5GDpeun-12" edge="1">
          <mxGeometry relative="1" as="geometry" />
        </mxCell>
      </root>
    </mxGraphModel>
  </diagram>
</mxfile>
